<?xml version="1.0" standalone="no"?>
<!DOCTYPE svg PUBLIC "-//W3C//DTD SVG 20010904//EN"
 "http://www.w3.org/TR/2001/REC-SVG-20010904/DTD/svg10.dtd">
<svg version="1.0" xmlns="http://www.w3.org/2000/svg"
 width="500.000000pt" height="500.000000pt" viewBox="0 0 500.000000 500.000000"
 preserveAspectRatio="xMidYMid meet">
<metadata>
Created by potrace 1.14, written by Peter Selinger 2001-2017
</metadata>
<g transform="translate(0.000000,500.000000) scale(0.100000,-0.100000)"
fill="#000000" stroke="none">
<path d="M0 2500 l0 -2500 2500 0 2500 0 0 2500 0 2500 -2500 0 -2500 0 0
-2500z m910 90 l0 -820 -375 0 -375 0 0 820 0 820 375 0 375 0 0 -820z m2167
779 c43 -6 101 -22 129 -35 68 -32 135 -105 165 -180 l24 -59 0 -540 0 -540
-23 -58 c-46 -112 -130 -194 -229 -223 -75 -22 -215 -21 -285 0 -106 34 -187
115 -230 231 -22 58 -22 72 -26 555 -3 512 0 565 38 654 34 80 109 148 194
176 32 10 99 23 153 29 6 0 47 -4 90 -10z m927 1 c133 -20 222 -82 270 -190
28 -62 56 -218 56 -312 l0 -58 -160 0 -160 0 0 94 c0 109 -12 154 -45 162 -41
10 -77 0 -99 -29 -20 -28 -21 -40 -24 -439 -4 -532 3 -578 88 -578 68 0 75 17
78 211 l3 169 -40 0 -41 0 0 140 0 140 200 0 200 0 0 -475 0 -475 -69 0 c-63
0 -70 2 -77 23 -4 12 -15 42 -26 66 l-19 44 -23 -31 c-66 -90 -181 -131 -307
-111 -137 22 -217 102 -265 264 -15 52 -18 119 -21 518 -3 298 -1 482 6 527
31 199 139 317 312 339 89 12 86 12 163 1z m-2484 -25 c107 -28 169 -95 197
-214 18 -79 17 -274 -3 -340 -17 -59 -69 -122 -115 -141 l-31 -13 34 -14 c100
-42 147 -162 148 -374 0 -204 -45 -365 -125 -442 -69 -67 -125 -77 -421 -77
l-254 0 0 815 0 815 258 0 c193 0 271 -4 312 -15z m670 -660 l0 -675 165 0
165 0 0 -140 0 -140 -330 0 -330 0 0 815 0 815 165 0 165 0 0 -675z"/>
<path d="M250 3281 c0 -55 0 -55 103 -67 32 -4 56 -9 53 -11 -2 -2 -37 -9 -77
-16 l-74 -13 -3 -47 c-4 -58 -11 -58 178 -12 111 27 166 35 238 35 l92 0 0 50
0 50 -85 0 c-65 0 -125 9 -251 40 -92 22 -168 40 -170 40 -2 0 -4 -22 -4 -49z"/>
<path d="M480 3034 c-124 -12 -226 -23 -227 -23 -7 -2 -2 -171 5 -171 16 0
420 -40 460 -45 l42 -6 0 50 0 50 -37 3 c-35 3 -38 6 -41 36 -3 31 -2 32 37
32 l41 0 0 50 c0 59 33 56 -280 24z m118 -106 c-3 -20 -8 -21 -68 -19 -36 2
-94 6 -130 10 l-65 7 105 11 c165 16 162 16 158 -9z"/>
<path d="M310 2752 c-41 -20 -60 -53 -60 -105 0 -78 42 -117 126 -117 58 0 75
10 151 81 54 52 66 59 102 59 33 0 41 -3 41 -19 0 -20 -25 -31 -72 -31 -26 0
-28 -3 -28 -44 0 -25 4 -47 10 -51 5 -3 37 -1 72 4 84 14 108 40 108 117 0 68
-12 92 -55 110 -41 17 -138 18 -168 3 -12 -7 -52 -41 -89 -76 -68 -65 -103
-78 -103 -38 0 14 8 21 28 23 25 3 27 6 27 53 0 47 -1 49 -27 49 -16 0 -44 -8
-63 -18z"/>
<path d="M660 2445 l0 -56 -57 3 -58 3 -3 48 -3 47 -45 0 -44 0 0 -50 0 -50
-50 0 -50 0 0 50 0 50 -50 0 -50 0 0 -100 0 -100 255 0 255 0 0 105 0 105 -50
0 -50 0 0 -55z"/>
<path d="M250 2213 l0 -50 48 -6 c26 -4 92 -9 147 -13 55 -4 95 -9 89 -11 -7
-2 -72 -9 -145 -16 l-134 -12 -3 -46 -3 -46 53 -6 c29 -4 95 -9 146 -13 51 -4
91 -9 88 -11 -2 -2 -66 -9 -142 -16 l-139 -12 -3 -47 c-3 -46 -2 -48 23 -48
26 0 357 34 443 46 l42 5 0 59 c0 69 5 66 -130 76 -106 8 -92 16 52 29 l78 7
0 62 0 61 -222 24 c-123 13 -238 26 -255 28 l-33 6 0 -50z"/>
<path d="M2943 3043 c-17 -25 -18 -64 -18 -498 0 -437 1 -473 18 -498 16 -24
24 -28 60 -25 33 2 44 8 54 28 10 19 13 138 13 500 0 537 2 520 -70 520 -32 0
-43 -5 -57 -27z"/>
<path d="M1270 2930 l0 -180 50 0 c76 0 85 20 85 188 0 128 -1 134 -24 153
-15 12 -39 19 -67 19 l-44 0 0 -180z"/>
<path d="M1270 2255 l0 -235 44 0 c54 0 91 27 107 79 15 50 7 306 -10 342 -16
33 -50 49 -101 49 l-40 0 0 -235z"/>
</g>
</svg>
